<?xml version="1.0" standalone="no"?>
<!DOCTYPE svg PUBLIC "-//W3C//DTD SVG 20010904//EN"
 "http://www.w3.org/TR/2001/REC-SVG-20010904/DTD/svg10.dtd">
<svg version="1.0" xmlns="http://www.w3.org/2000/svg"
 width="611.000000pt" height="636.000000pt" viewBox="0 0 611.000000 636.000000"
 preserveAspectRatio="xMidYMid meet">

<g transform="translate(0.000000,636.000000) scale(0.100000,-0.100000)"
fill="#000000" stroke="none">
<path d="M0 3180 l0 -3180 3055 0 3055 0 0 3180 0 3180 -3055 0 -3055 0 0
-3180z m2260 600 c0 -17 -7 -20 -42 -21 -69 0 -111 -19 -130 -59 -17 -32 -18
-83 -18 -608 0 -636 -2 -620 65 -648 19 -8 55 -14 80 -14 38 0 45 -3 45 -20 0
-20 -7 -20 -360 -20 -346 0 -360 1 -360 19 0 16 9 19 65 23 77 5 107 27 124
93 16 63 14 1096 -2 1149 -16 53 -51 76 -125 83 -52 5 -62 9 -62 24 0 18 16
19 360 19 353 0 360 0 360 -20z m1315 -149 c79 -35 115 -103 115 -215 0 -123
-53 -205 -145 -224 -52 -11 -114 -4 -151 16 -34 18 -72 69 -84 110 -14 50 -13
156 2 205 31 102 160 155 263 108z m-1032 -163 l112 -173 3 130 c3 153 0 173
-33 185 -47 18 -27 30 50 30 60 0 75 -3 75 -15 0 -8 -9 -15 -20 -15 -11 0 -23
-6 -25 -13 -3 -6 -6 -100 -8 -207 -2 -193 -3 -195 -24 -198 -23 -3 -33 11
-223 307 l-35 54 -3 -147 c-3 -154 4 -186 38 -186 11 0 20 -7 20 -15 0 -12
-16 -15 -81 -15 -59 0 -80 3 -77 12 3 7 15 15 29 18 l24 6 0 189 0 189 -24 6
c-14 3 -26 11 -29 18 -3 9 14 12 57 12 l61 0 113 -172z m480 0 l112 -173 3
130 c3 153 0 173 -33 185 -48 18 -26 30 56 30 60 0 80 -3 77 -12 -3 -7 -15
-14 -27 -16 -12 -2 -24 -9 -27 -15 -2 -7 -5 -100 -7 -207 -2 -193 -3 -195 -24
-198 -23 -3 -33 11 -223 307 l-35 54 -3 -147 c-3 -154 4 -186 38 -186 11 0 20
-7 20 -15 0 -12 -16 -15 -81 -15 -59 0 -80 3 -77 12 3 7 15 15 29 18 l24 6 0
189 0 189 -24 6 c-14 3 -26 11 -29 18 -3 9 14 12 57 12 l61 0 113 -172z m877
164 c0 -5 -12 -14 -26 -21 -14 -6 -24 -17 -22 -25 2 -7 25 -83 52 -167 l50
-154 54 158 c29 88 51 165 48 172 -2 7 -15 15 -27 17 -12 2 -24 9 -27 16 -3 9
17 12 77 12 45 0 81 -3 81 -7 0 -5 -12 -15 -28 -24 -23 -13 -36 -43 -96 -218
-66 -194 -70 -202 -94 -199 -22 3 -30 20 -96 208 -62 179 -74 205 -93 208 -13
2 -23 10 -23 18 0 11 18 14 85 14 47 0 85 -4 85 -8z m-260 -712 c29 -16 43
-46 31 -69 -13 -23 -51 -35 -51 -16 0 8 -10 26 -23 41 -18 21 -32 26 -64 26
-99 -2 -142 -62 -143 -197 0 -135 44 -190 153 -190 l62 0 0 65 c0 58 -2 66
-22 75 -13 5 -23 15 -23 22 0 9 22 13 80 13 64 0 80 -3 80 -15 0 -8 -7 -15
-15 -15 -23 0 -35 -34 -35 -99 l0 -59 -36 -12 c-57 -19 -154 -15 -206 7 -74
34 -109 101 -107 212 0 36 6 81 13 99 17 48 73 100 125 117 49 16 147 13 181
-5z m-1167 -167 c34 -95 64 -173 67 -173 3 0 32 78 66 173 l61 172 72 3 c56 2
72 0 69 -10 -3 -7 -13 -15 -24 -17 -10 -2 -22 -8 -26 -15 -4 -6 -8 -88 -8
-181 0 -177 4 -195 42 -195 10 0 18 -7 18 -15 0 -12 -16 -15 -85 -15 -69 0
-85 3 -85 15 0 8 9 15 20 15 28 0 31 23 28 205 l-3 160 -70 -198 c-59 -167
-73 -197 -89 -195 -14 2 -34 47 -90 198 l-71 195 -3 -163 c-3 -164 4 -202 33
-202 8 0 15 -7 15 -15 0 -12 -15 -15 -76 -15 -55 0 -75 3 -72 12 3 7 15 15 29
18 l24 6 3 187 2 188 -30 10 c-53 19 -33 30 46 27 l76 -3 61 -172z m659 37
c94 -261 99 -271 124 -280 49 -19 24 -30 -66 -30 -91 0 -115 11 -65 30 28 11
30 25 13 81 l-11 39 -84 0 -84 0 -15 -36 c-20 -48 -15 -78 14 -82 12 -2 22
-10 22 -18 0 -11 -17 -14 -75 -14 -58 0 -75 3 -75 14 0 8 10 16 22 18 19 3 33
32 100 208 42 113 77 206 78 208 0 2 12 2 26 0 24 -3 31 -15 76 -138z m808
131 c0 -5 -14 -14 -30 -20 l-30 -10 2 -188 3 -187 24 -6 c14 -3 26 -11 29 -18
3 -10 -18 -12 -90 -10 -89 3 -119 16 -66 28 l23 6 0 189 0 189 -24 6 c-14 3
-26 11 -29 18 -3 9 21 12 92 12 53 0 96 -4 96 -9z m273 -163 l112 -172 3 129
c3 153 0 173 -33 185 -48 18 -26 30 56 30 60 0 80 -3 77 -12 -3 -7 -15 -14
-27 -16 -38 -6 -43 -43 -38 -239 l5 -183 -24 0 c-20 0 -43 30 -144 183 l-120
182 0 -148 c0 -154 7 -187 40 -187 11 0 20 -7 20 -15 0 -12 -16 -15 -81 -15
-59 0 -80 3 -77 12 3 7 15 15 29 18 l24 6 3 187 2 188 -30 10 c-48 17 -35 29
30 29 l61 0 112 -172z m568 145 c0 -16 3 -40 5 -55 4 -23 1 -28 -16 -28 -14 0
-20 7 -20 22 0 41 -27 58 -97 58 l-63 0 0 -85 0 -85 75 0 c60 0 75 -3 75 -15
0 -12 -15 -15 -75 -15 l-75 0 0 -95 0 -95 70 0 c76 0 110 19 110 60 0 13 7 20
20 20 22 0 25 -21 14 -79 l-6 -31 -170 0 c-129 0 -169 3 -166 12 3 7 15 15 29
18 l24 6 3 187 2 188 -30 10 c-58 21 -18 29 136 29 l154 0 1 -27z"/>
<path d="M1845 3395 c-14 -13 -25 -36 -25 -50 0 -36 42 -75 80 -75 38 0 80 39
80 75 0 36 -42 75 -80 75 -19 0 -40 -9 -55 -25z"/>
<path d="M1835 3197 c-3 -7 -4 -123 -3 -257 l3 -245 63 -3 62 -3 0 261 0 260
-60 0 c-40 0 -62 -4 -65 -13z"/>
<path d="M3421 3589 c-13 -12 -29 -37 -37 -55 -18 -44 -18 -194 0 -238 45
-107 195 -100 226 12 5 20 10 73 10 116 0 92 -24 155 -66 174 -42 20 -107 15
-133 -9z"/>
<path d="M3013 2779 c-17 -46 -34 -92 -38 -101 -6 -16 0 -18 65 -18 66 0 71 1
65 19 -3 11 -18 57 -34 102 l-27 82 -31 -84z"/>
</g>
</svg>
